<?xml version="1.0" standalone="no"?>
<!DOCTYPE svg PUBLIC "-//W3C//DTD SVG 20010904//EN"
 "http://www.w3.org/TR/2001/REC-SVG-20010904/DTD/svg10.dtd">
<svg version="1.0" xmlns="http://www.w3.org/2000/svg"
 width="754.000000pt" height="760.000000pt" viewBox="0 0 754.000000 760.000000"
 preserveAspectRatio="xMidYMid meet">

<g transform="translate(0.000000,760.000000) scale(0.100000,-0.100000)"
fill="#000000" stroke="none">
<path d="M1695 6608 c-143 -44 -261 -81 -263 -83 -2 -2 15 -63 37 -136 22 -73
39 -134 37 -136 -2 -2 -61 -22 -131 -43 -70 -21 -129 -41 -132 -43 -2 -3 163
-557 368 -1231 204 -675 369 -1229 366 -1232 -8 -8 -260 -84 -264 -80 -2 2
-21 61 -42 130 -22 70 -41 129 -44 132 -4 4 -805 -234 -816 -242 -3 -3 236
-810 243 -821 1 -1 60 16 131 38 72 21 134 38 139 36 5 -2 26 -61 47 -132 22
-70 40 -129 42 -131 1 -2 62 15 136 37 73 23 134 39 136 37 2 -2 40 -122 84
-267 44 -145 82 -266 85 -268 10 -10 266 72 266 85 0 20 -151 516 -161 526 -5
5 -58 -6 -131 -27 -68 -21 -128 -37 -134 -37 -6 0 -28 59 -49 130 -25 87 -43
130 -52 130 -8 0 -68 -16 -134 -36 -68 -21 -124 -33 -129 -28 -9 10 -160 505
-160 526 0 9 89 40 263 92 144 43 266 79 270 80 5 0 27 -59 50 -132 47 -155
22 -144 204 -88 l113 34 9 -32 c42 -149 235 -773 241 -779 7 -8 247 58 262 72
4 4 -233 798 -526 1766 -294 968 -536 1768 -538 1778 -3 16 33 30 267 101 179
55 272 79 276 72 4 -6 172 -558 374 -1226 202 -668 370 -1218 374 -1221 5 -5
258 66 269 76 1 1 -72 247 -163 546 -90 299 -161 546 -157 550 4 3 125 41 270
84 175 53 262 84 262 93 0 12 -70 253 -75 260 -1 1 -121 -33 -266 -78 -145
-44 -269 -80 -274 -80 -6 0 -84 244 -175 543 -90 298 -164 543 -166 545 -1 2
-61 -15 -135 -38 -73 -22 -135 -37 -139 -33 -4 4 -24 65 -45 136 -21 70 -43
126 -49 126 -6 -1 -128 -37 -271 -81z"/>
<path d="M3705 5421 c-209 -64 -386 -119 -393 -122 -11 -3 26 -135 148 -539
89 -294 165 -540 169 -547 4 -8 44 1 136 29 72 22 132 41 133 43 2 2 -51 183
-117 402 -67 220 -121 404 -121 410 0 7 24 18 53 27 151 44 480 146 484 149 2
3 -13 63 -35 133 -31 105 -42 129 -58 131 -10 1 -190 -51 -399 -116z"/>
<path d="M4660 5413 c-68 -19 -291 -88 -430 -132 -14 -5 -24 -12 -23 -17 3
-17 325 -1079 328 -1083 2 -1 64 15 137 37 108 32 132 43 130 57 -2 9 -57 193
-122 408 -65 216 -116 395 -112 398 11 9 261 83 266 78 2 -2 20 -60 41 -129
20 -69 40 -128 44 -132 3 -3 64 12 135 34 71 22 132 36 136 31 9 -10 583
-1903 578 -1908 -1 -1 -59 -20 -128 -40 -69 -20 -128 -40 -132 -43 -4 -4 48
-189 116 -412 68 -223 122 -407 120 -409 -1 -2 -60 -20 -130 -42 -69 -21 -129
-40 -132 -43 -5 -5 66 -257 78 -276 7 -11 270 70 270 83 0 5 -18 68 -40 140
-22 72 -37 134 -33 137 5 4 64 23 132 43 68 21 126 39 128 41 2 2 -50 182
-117 401 -66 218 -120 403 -120 410 0 7 52 28 130 51 71 22 130 44 130 49 1 6
-129 438 -287 962 l-288 952 -25 -6 c-14 -4 -76 -23 -138 -43 l-112 -36 -26
86 c-14 47 -33 108 -42 136 l-17 51 -133 -40 c-73 -22 -135 -38 -138 -35 -3 3
-22 63 -43 132 -22 70 -40 128 -42 130 -2 1 -42 -8 -89 -21z"/>
<path d="M2262 2290 c-68 -21 -125 -40 -128 -43 -5 -4 152 -536 160 -544 1 -1
61 16 135 38 73 23 135 39 137 36 2 -2 40 -122 84 -267 44 -145 82 -265 84
-268 8 -7 271 75 269 85 -6 35 -157 520 -164 527 -5 6 -58 -6 -131 -27 -68
-21 -128 -37 -133 -37 -6 0 -47 120 -91 267 -45 147 -85 268 -90 269 -5 1 -64
-15 -132 -36z"/>
<path d="M3142 1360 c-68 -21 -125 -40 -128 -43 -3 -2 50 -187 118 -411 123
-405 123 -406 148 -401 14 3 237 70 495 149 l470 142 -5 35 c-7 51 -6 168 3
217 5 30 4 42 -5 42 -6 0 -182 -52 -390 -115 -208 -63 -384 -115 -391 -115 -7
0 -44 106 -93 267 -44 147 -84 268 -89 269 -6 1 -65 -15 -133 -36z"/>
</g>
</svg>
